<svg xmlns="http://www.w3.org/2000/svg" xmlns:xlink="http://www.w3.org/1999/xlink" width="1198.322" height="956" viewBox="0 0 1198.322 956">
  <defs>
    <linearGradient id="linear-gradient" y1="0.361" x2="0.996" y2="0.637" gradientUnits="objectBoundingBox">
      <stop offset="0" stop-color="#33d35e"/>
      <stop offset="1" stop-color="#2ab6d9"/>
    </linearGradient>
  </defs>
  <g id="bg-intro-desktop" transform="translate(-57.53)">
    <path id="Path_1" data-name="Path 1" d="M69.445,572.84,203.73,707.112A100,100,0,0,0,274.438,736.4h70.693a100,100,0,0,1,70.708,29.287l161.04,161.027A100,100,0,0,0,647.584,956h388.853A81.414,81.414,0,0,0,1094,817.016l-86.393-86.386a30.811,30.811,0,0,1,21.786-52.6,30.812,30.812,0,0,0,21.787-52.6L855.85,430.11a100,100,0,0,0-70.708-29.287H550.7a100,100,0,0,1-70.708-29.287l-35.253-35.25A100,100,0,0,0,374.032,307H138.88a57.522,57.522,0,0,0-40.674,98.2l28.762,28.761A40.676,40.676,0,0,1,98.207,503.4a40.676,40.676,0,0,0-28.762,69.44Z"/>
    <path id="Path_2" data-name="Path 2" d="M69.445,572.84,203.73,707.112A100,100,0,0,0,274.438,736.4h70.693a100,100,0,0,1,70.708,29.287l161.04,161.027A100,100,0,0,0,647.584,956h388.853A81.414,81.414,0,0,0,1094,817.016l-86.393-86.386a30.811,30.811,0,0,1,21.786-52.6,30.812,30.812,0,0,0,21.787-52.6L855.85,430.11a100,100,0,0,0-70.708-29.287H550.7a100,100,0,0,1-70.708-29.287l-35.253-35.25A100,100,0,0,0,374.032,307H138.88a57.522,57.522,0,0,0-40.674,98.2l28.762,28.761A40.676,40.676,0,0,1,98.207,503.4a40.676,40.676,0,0,0-28.762,69.44Z" fill="#2d314d"/>
    <path id="Path_3" data-name="Path 3" d="M207.445,265.84,341.73,400.112A100,100,0,0,0,412.438,429.4h70.693a100,100,0,0,1,70.708,29.287l161.04,161.027A100,100,0,0,0,785.584,649h388.853A81.413,81.413,0,0,0,1232,510.017l-86.393-86.387a30.811,30.811,0,0,1,21.786-52.6,30.812,30.812,0,0,0,21.787-52.6L993.85,123.11a100,100,0,0,0-70.708-29.287H688.7a100,100,0,0,1-70.708-29.287l-35.253-35.25A100,100,0,0,0,512.032,0H276.88a57.522,57.522,0,0,0-40.674,98.2l28.762,28.761a40.676,40.676,0,0,1-28.761,69.44,40.676,40.676,0,0,0-28.762,69.44Z" fill-rule="evenodd" fill="url(#linear-gradient)"/>
  </g>
</svg>
