<svg xmlns="http://www.w3.org/2000/svg" xmlns:xlink="http://www.w3.org/1999/xlink" width="862.409" height="398" viewBox="0 0 862.409 398">
  <defs>
    <linearGradient id="linear-gradient" y1="0.361" x2="0.996" y2="0.637" gradientUnits="objectBoundingBox">
      <stop offset="0" stop-color="#33d35e"/>
      <stop offset="1" stop-color="#2ab6d9"/>
    </linearGradient>
  </defs>
  <g id="bg-intro-mobile" transform="translate(-35.176)">
    <path id="Path_4" data-name="Path 4" d="M42.46,162.61,113.2,233.37a100,100,0,0,0,70.719,29.3h11.03a100,100,0,0,1,70.719,29.3L341.39,367.7A100,100,0,0,0,412.109,397H633.78A49.805,49.805,0,0,0,669,311.982l-52.835-52.848a18.846,18.846,0,0,1,13.328-32.171,18.847,18.847,0,0,0,13.328-32.171L534.747,86.691a100,100,0,0,0-70.72-29.3H352.013a97.948,97.948,0,0,1-69.267-28.7A97.948,97.948,0,0,0,213.477,0H84.94A35.19,35.19,0,0,0,60.054,60.07l17.6,17.6a24.88,24.88,0,0,1-17.594,42.47,24.88,24.88,0,0,0-17.6,42.47Z"/>
    <path id="Path_5" data-name="Path 5" d="M42.46,162.61,113.2,233.37a100,100,0,0,0,70.719,29.3h11.03a100,100,0,0,1,70.719,29.3L341.39,367.7A100,100,0,0,0,412.109,397H633.78A49.805,49.805,0,0,0,669,311.982l-52.835-52.848a18.846,18.846,0,0,1,13.328-32.171,18.847,18.847,0,0,0,13.328-32.171L534.747,86.691a100,100,0,0,0-70.72-29.3H352.013a97.948,97.948,0,0,1-69.267-28.7A97.948,97.948,0,0,0,213.477,0H84.94A35.19,35.19,0,0,0,60.054,60.07l17.6,17.6a24.88,24.88,0,0,1-17.594,42.47,24.88,24.88,0,0,0-17.6,42.47Z" fill="#2d314d"/>
    <path id="Path_6" data-name="Path 6" d="M256.46,163.61,327.2,234.37a100,100,0,0,0,70.719,29.3h11.03a100,100,0,0,1,70.719,29.3L555.39,368.7A100,100,0,0,0,626.109,398H847.78A49.8,49.8,0,0,0,883,312.982l-52.835-52.848a18.846,18.846,0,0,1,13.328-32.171,18.846,18.846,0,0,0,13.328-32.171L748.747,87.691a100,100,0,0,0-70.72-29.3H566.013a97.948,97.948,0,0,1-69.267-28.7A97.948,97.948,0,0,0,427.477,1H298.94a35.19,35.19,0,0,0-24.886,60.07l17.6,17.6a24.88,24.88,0,0,1-17.594,42.47,24.88,24.88,0,0,0-17.6,42.47Z" fill-rule="evenodd" fill="url(#linear-gradient)"/>
  </g>
</svg>
